<?xml version="1.0" encoding="UTF-8"?>
<svg width="52px" height="32px" viewBox="0 0 52 32" version="1.1" xmlns="http://www.w3.org/2000/svg" xmlns:xlink="http://www.w3.org/1999/xlink">
    <!-- Generator: Sketch 52.6 (67491) - http://www.bohemiancoding.com/sketch -->
    <title>6344026421555590629</title>
    <desc>Created with Sketch.</desc>
    <g id="Page-1" stroke="none" stroke-width="1" fill="none" fill-rule="evenodd">
        <g id="6344026421555590629" fill="#FDB1B2">
            <path d="M43.2828573,14.4905453 C42.6609355,14.4905453 42.0582697,14.5557799 41.4737632,14.6785386 C41.4737632,14.6467168 41.4774194,14.6147727 41.4774194,14.5840524 C41.4774194,6.52591641 34.9738698,0 26.9544544,0 C20.1830263,0 14.4922528,4.65650817 12.8901003,10.9558779 C12.1511797,10.7945658 11.387275,10.7057096 10.6010673,10.7057096 C4.74759241,10.7060767 0,15.4717582 0,21.3559758 C0,27.2354201 4.74759241,32 10.6016767,32 L43.2833448,32 C48.0958959,32 52,28.0823695 52,23.2472921 C51.9995125,18.4080534 48.0954084,14.4905453 43.2828573,14.4905453 Z" id="Path"></path>
        </g>
    </g>
</svg>