<?xml version="1.0" encoding="UTF-8"?>
<svg width="28px" height="30px" viewBox="0 0 28 30" version="1.1" xmlns="http://www.w3.org/2000/svg" xmlns:xlink="http://www.w3.org/1999/xlink">
    <!-- Generator: Sketch 52.6 (67491) - http://www.bohemiancoding.com/sketch -->
    <title>11457196731595989167</title>
    <desc>Created with Sketch.</desc>
    <g id="Page-1" stroke="none" stroke-width="1" fill="none" fill-rule="evenodd">
        <g id="Desktop-View-Copy-3" transform="translate(-920.000000, -262.000000)">
            <g id="11457196731595989167" transform="translate(934.000000, 277.000000) rotate(-360.000000) translate(-934.000000, -277.000000) translate(920.000000, 262.000000)">
                <path d="M14,6 C13.4,6 13,5.6 13,5 L13,3 C13,2.4 13.4,2 14,2 C14.6,2 15,2.4 15,3 L15,5 C15,5.6 14.6,6 14,6 Z" id="Path" fill="#FDB1B2"></path>
                <path d="M11.5,30 C9.6,30 8,28.4 8,26.5 C8,25.9 8.4,25.5 9,25.5 C9.6,25.5 10,25.9 10,26.5 C10,27.3 10.7,28 11.5,28 C12.3,28 13,27.3 13,26.5 L13,18 C13,17.4 13.4,17 14,17 C14.6,17 15,17.4 15,18 L15,26.5 C15,28.4 13.4,30 11.5,30 Z" id="Path" fill="#FDB1B2"></path>
                <path d="M22,14 C19.2,14 17,11.8 17,9 C17,6.6 20.5,1.4 21.2,0.4 C21.6,-0.1 22.5,-0.1 22.8,0.4 C23.5,1.4 27,6.6 27,9 C27,11.8 24.8,14 22,14 Z" id="Path" fill="#FEC8C9"></path>
                <path d="M22,16 C18.1,16 15,12.9 15,9 C15,7.7 15.7,6 16.5,4.2 C15.7,4.1 14.9,4 14,4 C6.3,4 0,10.3 0,18 C0,18.6 0.4,19 1,19 L27,19 C27.6,19 28,18.6 28,18 C28,16.5 27.8,15 27.3,13.6 C26,15.1 24.1,16 22,16 Z" id="Path" fill="#FDB1B2"></path>
            </g>
        </g>
    </g>
</svg>