<?xml version="1.0" encoding="UTF-8"?>
<svg width="20px" height="17px" viewBox="0 0 20 17" version="1.1" xmlns="http://www.w3.org/2000/svg" xmlns:xlink="http://www.w3.org/1999/xlink">
    <!-- Generator: Sketch 52.6 (67491) - http://www.bohemiancoding.com/sketch -->
    <title>Shape</title>
    <desc>Created with Sketch.</desc>
    <g id="Page-1" stroke="none" stroke-width="1" fill="none" fill-rule="evenodd">
        <g id="Desktop-View-Copy-3" transform="translate(-791.000000, -200.000000)" fill="#FDB1B2" fill-rule="nonzero">
            <g id="17007333341618135482" transform="translate(789.000000, 196.000000)">
                <path d="M4,4 L8,4 L8,6 L4,6 L4,4 Z M16,19 L20,19 L20,21 L16,21 L16,19 Z M2,9 L7,9 L7,11 L2,11 L2,9 Z M9,9 L12,9 L12,11 L9,11 L9,9 Z M14,9 L20,9 L20,11 L14,11 L14,9 Z M4,14 L10,14 L10,16 L4,16 L4,14 Z M12,14 L15,14 L15,16 L12,16 L12,14 Z M17,14 L22,14 L22,16 L17,16 L17,14 Z M10,4 L22,4 L22,6 L10,6 L10,4 Z M2,19 L14,19 L14,21 L2,21 L2,19 Z" id="Shape"></path>
            </g>
        </g>
    </g>
</svg>