<?xml version="1.0" encoding="UTF-8"?>
<svg width="116px" height="77px" viewBox="0 0 116 77" version="1.1" xmlns="http://www.w3.org/2000/svg" xmlns:xlink="http://www.w3.org/1999/xlink">
    <!-- Generator: Sketch 52.6 (67491) - http://www.bohemiancoding.com/sketch -->
    <title>Group</title>
    <desc>Created with Sketch.</desc>
    <g id="Page-1" stroke="none" stroke-width="1" fill="none" fill-rule="evenodd">
        <g id="Desktop-View-Copy-3" transform="translate(-451.000000, -283.000000)">
            <g id="Group" transform="translate(451.000000, 283.000000)">
                <g id="7027343031557749681" opacity="0.707773844" transform="translate(39.000000, 0.000000)" fill="#FDB1B2">
                    <path d="M77,38.5 C77,59.7631222 59.7631222,77 38.5,77 C17.2368778,77 0,59.7631222 0,38.5 C0,17.2368778 17.2368778,0 38.5,0 C59.7631222,0 77,17.2368778 77,38.5 Z" id="Path"></path>
                </g>
                <g id="6344026421555590629" transform="translate(0.000000, 21.000000)" fill="#E9A2A3">
                    <path d="M75.7450002,25.3584542 C74.6566371,25.3584542 73.601972,25.4726149 72.5790855,25.6874426 C72.5790855,25.6317545 72.5854839,25.5758522 72.5854839,25.5220917 C72.5854839,11.4203537 61.2042721,0 47.1702951,0 C35.320296,0 25.3614424,8.1488893 22.5576756,19.1727862 C21.2645645,18.8904902 19.9277312,18.7349917 18.5518678,18.7349917 C8.30828671,18.7356343 0,27.0755768 0,37.3729576 C0,47.6619852 8.30828671,56 18.5529342,56 L75.7458534,56 C84.1678178,56 91,49.1441466 91,40.6827612 C90.9991469,32.2140934 84.1669647,25.3584542 75.7450002,25.3584542 Z" id="Path"></path>
                </g>
            </g>
        </g>
    </g>
</svg>