<?xml version="1.0" encoding="UTF-8"?>
<svg width="15px" height="19px" viewBox="0 0 15 19" version="1.1" xmlns="http://www.w3.org/2000/svg" xmlns:xlink="http://www.w3.org/1999/xlink">
    <!-- Generator: Sketch 52.6 (67491) - http://www.bohemiancoding.com/sketch -->
    <title>7355648491548329624</title>
    <desc>Created with Sketch.</desc>
    <g id="Page-1" stroke="none" stroke-width="1" fill="none" fill-rule="evenodd">
        <g id="Desktop-View-Copy-3" transform="translate(-677.000000, -203.000000)" fill="#FDB1B2" fill-rule="nonzero">
            <g id="1177194861543238955" transform="translate(386.000000, 174.000000)">
                <g id="6003215611595989181" transform="translate(189.000000, 0.000000)">
                    <g id="7355648491548329624" transform="translate(102.000000, 29.000000)">
                        <path d="M0,4.5 C8.1e-07,2.81578947 2.5105348,0 2.5105348,0 C2.5105348,0 4.9999999,2.81578947 5,4.5 C5,5.7000122 4.1872547,6.9999996 2.5105348,7 C0.83381492,7.0000004 -5.8e-07,5.7999878 0,4.5 Z M10,8.5 C10.0000008,6.8157895 12.5105348,4 12.5105348,4 C12.5105348,4 14.9999999,6.8157895 15,8.5 C15,9.7000122 14.1872547,10.9999996 12.5105348,11 C10.8338149,11.0000004 9.9999994,9.7999878 10,8.5 Z M3,16.5 C3.0000008,14.8157895 5.5105348,12 5.5105348,12 C5.5105348,12 7.9999999,14.8157895 8,16.5 C8,17.7000122 7.1872547,18.9999996 5.5105348,19 C3.8338149,19.0000004 2.9999994,17.7999878 3,16.5 Z" id="raindrops"></path>
                    </g>
                </g>
            </g>
        </g>
    </g>
</svg>