<?xml version="1.0" encoding="UTF-8"?>
<svg width="90px" height="107px" viewBox="0 0 90 107" version="1.1" xmlns="http://www.w3.org/2000/svg" xmlns:xlink="http://www.w3.org/1999/xlink">
    <!-- Generator: Sketch 52.6 (67491) - http://www.bohemiancoding.com/sketch -->
    <title>10054349371548329947</title>
    <desc>Created with Sketch.</desc>
    <g id="Page-1" stroke="none" stroke-width="1" fill="none" fill-rule="evenodd">
        <g id="Desktop-View-Copy-3" transform="translate(-716.000000, -277.000000)" fill="#FDB1B2" fill-rule="nonzero">
            <g id="10054349371548329947" transform="translate(716.000000, 277.000000)">
                <path d="M13.6700306,50.4978288 C7.7486997,51.8673669 3.33333333,57.1935387 3.33333333,63.53125 C3.33333333,70.9180585 9.32646117,76.90625 16.6760549,76.90625 L73.323945,76.90625 C80.6929267,76.90625 86.6666667,70.9030277 86.6666667,63.53125 C86.6666667,57.2535513 82.3381333,51.9860032 76.5270753,50.5457119 C76.619114,49.8717918 76.6666667,49.1836541 76.6666667,48.484375 C76.6666667,40.174215 69.9509383,33.4375 61.6666667,33.4375 C57.5815297,33.4375 53.8778107,35.0756466 51.1727107,37.73281 C47.8695637,31.2152635 41.1212833,26.75 33.3333333,26.75 C22.2876378,26.75 13.3333333,35.7322865 13.3333333,46.8125 C13.3333333,48.0713898 13.4489209,49.3031982 13.6700306,50.4978288 Z M73.3333333,31.765625 C73.3333333,21.6087628 65.125221,13.375 55,13.375 C47.6572983,13.375 41.322803,17.7051317 38.3957563,23.9586553 C36.7657897,23.5969578 35.0717633,23.40625 33.3333333,23.40625 C20.4466885,23.40625 10,33.8855846 10,46.8125 C10,47.2744421 10.0133402,47.7332584 10.0396554,48.1885829 C4.13219587,50.7635034 0,56.6736571 0,63.53125 C0,72.7647605 7.44164727,80.25 16.6647997,80.25 L73.3352003,80.25 C82.538915,80.25 90,72.7459723 90,63.53125 C90,56.6710072 85.8921523,50.7758238 79.9978313,48.198583 C79.911764,42.5313815 77.2702523,37.4858393 73.1780437,34.1701564 C73.2804867,33.3832008 73.3333333,32.5806037 73.3333333,31.765625 Z M69.99643,32.0971986 C69.998806,31.986962 70,31.8764334 70,31.765625 C70,23.455465 63.2842717,16.71875 55,16.71875 C49.169183,16.71875 44.115412,20.0560737 41.6333997,24.9303997 C45.811471,26.5260037 49.414561,29.2911059 52.045128,32.8269224 C54.8419063,31.0938556 58.1378567,30.09375 61.6666667,30.09375 C64.6659833,30.09375 67.497078,30.8162435 69.99643,32.0971986 Z M13.3333333,96.4910716 C13.333336,91.6640036 21.7017827,83.59375 21.7017827,83.59375 C21.7017827,83.59375 29.9999997,91.6640036 30,96.4910716 C30,99.930392 27.290849,103.656249 21.7017827,103.65625 C16.1127164,103.656251 13.3333314,100.216929 13.3333333,96.4910716 Z M16.6984049,96.2999592 C16.6984048,93.9593954 21.7017825,88.538761 21.7017825,88.538761 C21.7017825,88.538761 26.7085773,93.9593954 26.7085773,96.2999592 C26.7085773,98.8152209 24.477132,100.312499 21.7017827,100.3125 C18.9264332,100.3125 16.6984051,99.2249242 16.6984049,96.2999592 Z M36.6666667,99.8348216 C36.6666693,95.0077536 45.035116,86.9375 45.035116,86.9375 C45.035116,86.9375 53.333333,95.0077536 53.3333333,99.8348216 C53.3333333,103.274142 50.6241823,106.999999 45.035116,107 C39.4460497,107.000001 36.6666647,103.560679 36.6666667,99.8348216 Z M40.0317383,99.6437092 C40.0317383,97.3031454 45.035116,91.882511 45.035116,91.882511 C45.035116,91.882511 50.0419107,97.3031454 50.0419107,99.6437092 C50.0419107,102.158971 47.8104653,103.656249 45.035116,103.65625 C42.2597667,103.65625 40.0317383,102.568674 40.0317383,99.6437092 Z M60,96.4910716 C60.0000027,91.6640036 68.3684493,83.59375 68.3684493,83.59375 C68.3684493,83.59375 76.6666663,91.6640036 76.6666667,96.4910716 C76.6666667,99.930392 73.9575157,103.656249 68.3684493,103.65625 C62.779383,103.656251 59.999998,100.216929 60,96.4910716 Z M63.3650717,96.2999592 C63.3650717,93.9593954 68.3684493,88.538761 68.3684493,88.538761 C68.3684493,88.538761 73.375244,93.9593954 73.375244,96.2999592 C73.375244,98.8152209 71.1437987,100.312499 68.3684493,100.3125 C65.5931,100.3125 63.3650717,99.2249242 63.3650717,96.2999592 Z M55,0 C54.0795253,0 53.3333333,0.721422763 53.3333333,1.65645692 L53.3333333,8.3747931 C53.3333333,9.28962899 54.1064453,10.03125 55,10.03125 C55.9204747,10.03125 56.6666667,9.30982724 56.6666667,8.3747931 L56.6666667,1.65645692 C56.6666667,0.741621023 55.8935547,0 55,0 Z M77.4435047,9.32545533 C76.792631,8.67254752 75.7564597,8.65338412 75.0973503,9.3145531 L70.3615687,14.0651342 C69.7166973,14.7120208 69.7405983,15.7848072 70.372437,16.4186202 C71.0233107,17.071528 72.059482,17.0906915 72.7185913,16.4295224 L77.454373,11.6789414 C78.0992443,11.0320547 78.0753433,9.95926839 77.4435047,9.32545533 Z M86.739909,31.8390961 C86.739909,30.915745 86.0207337,30.1672211 85.0886123,30.1672211 L78.3912053,30.1672211 C77.4792197,30.1672211 76.739909,30.942749 76.739909,31.8390961 C76.739909,32.7624471 77.4590843,33.5109712 78.3912053,33.5109712 L85.0886123,33.5109712 C86.0005983,33.5109712 86.739909,32.7354431 86.739909,31.8390961 Z M32.5564953,9.32545533 C31.9056213,9.97836314 31.8865177,11.0177724 32.545627,11.6789414 L37.2814087,16.4295224 C37.92628,17.0764091 38.9957243,17.0524333 39.627563,16.4186202 C40.278437,15.7657124 40.2975407,14.7263032 39.6384313,14.0651342 L34.9026497,9.3145531 C34.257778,8.66766644 33.1883337,8.69164227 32.5564953,9.32545533 Z" id="cloud-sun-raindrops"></path>
            </g>
        </g>
    </g>
</svg>