<?xml version="1.0" encoding="UTF-8"?>
<svg width="28px" height="28px" viewBox="0 0 28 28" version="1.1" xmlns="http://www.w3.org/2000/svg" xmlns:xlink="http://www.w3.org/1999/xlink">
    <!-- Generator: Sketch 52.6 (67491) - http://www.bohemiancoding.com/sketch -->
    <title>6003215611595989181</title>
    <desc>Created with Sketch.</desc>
    <g id="Page-1" stroke="none" stroke-width="1" fill="none" fill-rule="evenodd">
        <g id="Desktop-View-Copy-3" transform="translate(-576.000000, -174.000000)" fill="#FDB1B2">
            <g id="6003215611595989181" transform="translate(575.000000, 174.000000)">
                <path d="M15.9,13.8 L15.4,11.8 L17.4,11.3 C17.9,11.2 18.3,10.6 18.1,10.1 C18,9.6 17.4,9.2 16.9,9.4 L14.4,10.1 L11.6,8.5 L14.4,6.9 L16.9,7.6 C17,7.6 17.1,7.6 17.2,7.6 C17.6,7.6 18,7.3 18.2,6.9 C18.3,6.4 18,5.8 17.5,5.7 L15.5,5.2 L16,3.2 C16.1,2.7 15.8,2.1 15.3,2 C14.8,1.9 14.2,2.2 14.1,2.7 L13.4,5.2 L10.6,6.8 L10.6,3.6 L12.5,1.7 C12.9,1.3 12.9,0.7 12.5,0.3 C12.1,-0.1 11.5,-0.1 11.1,0.3 L9.7,1.7 L8.1,0.3 C7.7,-0.1 7.1,-0.1 6.7,0.3 C6.3,0.7 6.3,1.3 6.7,1.7 L8.6,3.6 L8.6,6.8 L5.7,5.2 L5,2.6 C4.9,2.1 4.4,1.8 3.8,1.9 C3.3,2.1 3,2.6 3.1,3.2 L3.6,5.2 L1.6,5.7 C1.1,5.8 0.8,6.3 1,6.9 C1.1,7.3 1.5,7.6 2,7.6 C2.1,7.6 2.2,7.6 2.3,7.6 L4.8,6.9 L7.6,8.5 L4.8,10.1 L2.3,9.4 C1.8,9.3 1.2,9.6 1.1,10.1 C1,10.6 1.3,11.2 1.8,11.3 L3.8,11.8 L3.3,13.8 C3.2,14.3 3.5,14.9 4,15 C4.1,15 4.2,15 4.3,15 C4.7,15 5.1,14.7 5.3,14.3 L6,11.8 L8.8,10.2 L8.8,13.4 L6.9,15.3 C6.5,15.7 6.5,16.3 6.9,16.7 C7.3,17.1 7.9,17.1 8.3,16.7 L9.7,15.3 L11.1,16.7 C11.3,16.9 11.6,17 11.8,17 C12,17 12.3,16.9 12.5,16.7 C12.9,16.3 12.9,15.7 12.5,15.3 L10.6,13.4 L10.6,10.2 L13.4,11.8 L14.1,14.3 C14.2,14.7 14.6,15 15.1,15 C15.2,15 15.3,15 15.4,15 C15.7,14.9 16,14.4 15.9,13.8 Z" id="Path"></path>
                <path d="M27.7,21.6 L25.8,22.1 L24,21 L25.8,19.9 L27.7,20.4 C27.8,20.4 27.9,20.4 28,20.4 C28.4,20.4 28.8,20.1 29,19.7 C29.1,19.2 28.8,18.6 28.3,18.5 L26.9,18.1 L27.3,16.7 C27.4,16.2 27.1,15.6 26.6,15.5 C26.1,15.4 25.5,15.7 25.4,16.2 L24.9,18.1 L23,19.3 L23,17.2 L24.4,15.8 C24.8,15.4 24.8,14.8 24.4,14.4 C24,14 23.4,14 23,14.4 L22,15.4 L21,14.4 C20.6,14 20,14 19.6,14.4 C19.2,14.8 19.2,15.4 19.6,15.8 L21,17.2 L21,19.3 L19.2,18.2 L18.7,16.3 C18.6,15.8 18,15.4 17.5,15.6 C17,15.7 16.6,16.3 16.8,16.8 L17.2,18.2 L15.8,18.6 C15.3,18.7 14.9,19.3 15.1,19.8 C15.2,20.2 15.6,20.5 16.1,20.5 C16.2,20.5 16.3,20.5 16.4,20.5 L18.3,20 L20,21 L18.2,22.1 L16.3,21.6 C15.8,21.5 15.2,21.8 15.1,22.3 C15,22.8 15.3,23.4 15.8,23.5 L17.2,23.9 L16.8,25.3 C16.7,25.8 17,26.4 17.5,26.5 C17.6,26.5 17.7,26.5 17.8,26.5 C18.2,26.5 18.6,26.2 18.8,25.8 L19.3,23.9 L21.1,22.8 L21.1,24.9 L19.7,26.3 C19.3,26.7 19.3,27.3 19.7,27.7 C20.1,28.1 20.7,28.1 21.1,27.7 L22.1,26.7 L23.1,27.7 C23.3,27.9 23.6,28 23.8,28 C24,28 24.3,27.9 24.5,27.7 C24.9,27.3 24.9,26.7 24.5,26.3 L23,24.9 L23,22.8 L24.8,23.9 L25.3,25.8 C25.4,26.2 25.8,26.5 26.3,26.5 C26.4,26.5 26.5,26.5 26.6,26.5 C27.1,26.4 27.5,25.8 27.3,25.3 L26.9,23.9 L28.3,23.5 C28.8,23.4 29.2,22.8 29,22.3 C28.8,21.8 28.3,21.4 27.7,21.6 Z" id="Path"></path>
            </g>
        </g>
    </g>
</svg>