<?xml version="1.0" encoding="UTF-8"?>
<svg width="75px" height="60px" viewBox="0 0 75 60" version="1.1" xmlns="http://www.w3.org/2000/svg" xmlns:xlink="http://www.w3.org/1999/xlink">
    <!-- Generator: Sketch 52.6 (67491) - http://www.bohemiancoding.com/sketch -->
    <title>1177194861543238955</title>
    <desc>Created with Sketch.</desc>
    <g id="Page-1" stroke="none" stroke-width="1" fill="none" fill-rule="evenodd" stroke-linecap="round" stroke-linejoin="round">
        <g id="Desktop-View-Copy-3" transform="translate(-385.000000, -186.000000)" stroke="#FDB1B2" stroke-width="2">
            <g id="1177194861543238955" transform="translate(386.000000, 187.000000)">
                <path d="M27.7093856,2.13885305 C30.0438135,-0.192859335 33.6662312,-0.672865649 36.5347703,0.969401963 C39.4033094,2.61166958 40.7997515,5.96502395 39.9369564,9.139261 C39.0741613,12.3134981 36.1681536,14.5138597 32.8569789,14.5000556 L0,14.5001202 M38.6617119,55.8611469 C40.9961398,58.1928593 44.6185575,58.6728656 47.4870966,57.030598 C50.3556357,55.3883304 51.7520778,52.0349761 50.8892828,48.860739 C50.0264877,45.6865019 47.1204799,43.4861403 43.8093052,43.4999444 L0,43.4998798 M57.4266976,13.5213094 C60.3489381,10.6270509 64.863704,10.0403216 68.4376682,12.0903472 C72.0116324,14.1403728 73.7551936,18.316878 72.6900041,22.2763408 C71.6248146,26.2358035 68.0160125,28.9926675 63.8885701,29 L0,29" id="Shape"></path>
            </g>
        </g>
    </g>
</svg>